# xmcd
#
# Track frame offsets:
#	150
#	13397
#	23617
#	36830
#	52105
#	65372
#	78172
#	96007
#	110165
#	114710
#	117750
#	125997
#	142675
#	150562
#	174415
#	189587
#
# Disc length: 2681
#
# Revision: 1
# Processed by: cddbd v1.5.1PL0 Copyright (c) Steve Scherf et al.
# Submitted via: FreeRIP 2.70 
# Normalized: r0:TDELIM( - )
#
DISCID=d60a7710
DTITLE=Wien, Wien nur du allein
DYEAR=1997
DGENRE=Volklore
TTITLE0=Diana Braun - Draußen in Sievering
TTITLE1=A. Karas - Da draußen in der Wachau
TTITLE2=Maria Andergast - Du bist die Rose vom Wörhtersee
TTITLE3=Heinz Conrads - Wenn ich mit meinem Dackel
TTITLE4=H. Leopoldi - In derBarnabitengasse
TTITLE5=Peter Alexander - Der alte Liebesbrief
TTITLE6=Wiener Symphoniker - An der schönen blauen Donau
TTITLE7=Diana Braun - Im PRater blüh'n wieder die Bäume
TTITLE8=Rudi Kreuzberg - Es steht ein alter Nussbaum
TTITLE9=Die Goldenen 4 - Dann trin mer no a Flascherl Wein
TTITLE10=Fritz Pelikan - Das hat ka Goethe gschrieben
TTITLE11=Orchester der Volksoper Wien - Schatzwalzer
TTITLE12=Peter Lindner - Heut' geh ich mit an Pupperl aus
TTITLE13=Wiener Symphoniker - Wiener Cafe
TTITLE14=Diana Braun - Drunt in der Lobau
TTITLE15=Wiener Konzertschrammeln - Wien bleib Wien
EXTD=
EXTT0=
EXTT1=
EXTT2=
EXTT3=
EXTT4=
EXTT5=
EXTT6=
EXTT7=
EXTT8=
EXTT9=
EXTT10=
EXTT11=
EXTT12=
EXTT13=
EXTT14=
EXTT15=
PLAYORDER=
